<?xml version="1.0" encoding="UTF-8"?>
<svg width="600" height="400" viewBox="0 0 600 400" fill="none" xmlns="http://www.w3.org/2000/svg">
  <!-- Background -->
  <rect width="600" height="400" rx="20" fill="#F8FAFC"/>
  
  <!-- Decorative Elements -->
  <circle cx="100" cy="100" r="80" fill="#3B82F6" opacity="0.1"/>
  <circle cx="500" cy="300" r="60" fill="#3B82F6" opacity="0.1"/>
  <circle cx="300" cy="50" r="30" fill="#3B82F6" opacity="0.1"/>
  <circle cx="450" cy="150" r="40" fill="#3B82F6" opacity="0.1"/>
  <circle cx="150" cy="350" r="50" fill="#3B82F6" opacity="0.1"/>
  
  <!-- Laptop -->
  <rect x="200" y="150" width="200" height="140" rx="10" fill="#1E293B"/>
  <rect x="210" y="160" width="180" height="110" rx="5" fill="#FFFFFF"/>
  <rect x="180" y="290" width="240" height="10" rx="5" fill="#1E293B"/>
  <rect x="230" y="290" width="140" height="20" rx="10" fill="#1E293B"/>
  
  <!-- Code on Screen -->
  <rect x="220" y="170" width="160" height="10" rx="2" fill="#E2E8F0"/>
  <rect x="220" y="190" width="120" height="10" rx="2" fill="#E2E8F0"/>
  <rect x="220" y="210" width="140" height="10" rx="2" fill="#E2E8F0"/>
  <rect x="220" y="230" width="100" height="10" rx="2" fill="#E2E8F0"/>
  <rect x="220" y="250" width="130" height="10" rx="2" fill="#E2E8F0"/>
  
  <!-- Books -->
  <rect x="100" y="250" width="60" height="80" rx="5" fill="#3B82F6"/>
  <rect x="105" y="260" width="50" height="5" rx="2" fill="white" opacity="0.5"/>
  <rect x="105" y="270" width="40" height="5" rx="2" fill="white" opacity="0.5"/>
  
  <rect x="90" y="270" width="60" height="80" rx="5" fill="#2563EB"/>
  <rect x="95" y="280" width="50" height="5" rx="2" fill="white" opacity="0.5"/>
  <rect x="95" y="290" width="40" height="5" rx="2" fill="white" opacity="0.5"/>
  
  <rect x="80" y="290" width="60" height="80" rx="5" fill="#1D4ED8"/>
  <rect x="85" y="300" width="50" height="5" rx="2" fill="white" opacity="0.5"/>
  <rect x="85" y="310" width="40" height="5" rx="2" fill="white" opacity="0.5"/>
  
  <!-- Graduation Cap -->
  <rect x="450" y="220" width="80" height="10" rx="5" fill="#1E293B"/>
  <polygon points="490,200 460,220 520,220" fill="#1E293B"/>
  <circle cx="490" cy="200" r="10" fill="#1E293B"/>
  <rect x="485" y="200" width="10" height="30" rx="5" fill="#1E293B"/>
  
  <!-- Certificate -->
  <rect x="420" y="250" width="100" height="70" rx="5" fill="#FFFFFF" stroke="#1E293B" stroke-width="2"/>
  <rect x="430" y="260" width="80" height="5" rx="2" fill="#E2E8F0"/>
  <rect x="430" y="270" width="60" height="5" rx="2" fill="#E2E8F0"/>
  <rect x="430" y="280" width="70" height="5" rx="2" fill="#E2E8F0"/>
  <rect x="430" y="290" width="50" height="5" rx="2" fill="#E2E8F0"/>
  <circle cx="450" cy="310" r="10" fill="#3B82F6" opacity="0.5"/>
  <circle cx="490" cy="310" r="10" fill="#3B82F6" opacity="0.5"/>
</svg>
